<svg width="1055" height="309" viewBox="0 0 1055 309" fill="none" xmlns="http://www.w3.org/2000/svg">
<path d="M384.579 144.128L372.202 187.163L370.806 192.939C370.679 193.489 370.615 193.954 370.615 194.335C370.615 195.012 370.827 195.604 371.25 196.112C371.588 196.493 372.012 196.683 372.519 196.683C373.069 196.683 373.789 196.345 374.677 195.668C376.328 194.441 378.528 191.902 381.279 188.051L383.437 189.574C380.517 193.975 377.513 197.339 374.424 199.667C371.335 201.952 368.478 203.094 365.855 203.094C364.035 203.094 362.66 202.629 361.729 201.698C360.84 200.809 360.396 199.497 360.396 197.762C360.396 195.689 360.862 192.96 361.793 189.574L363.125 184.814C357.582 192.05 352.483 197.107 347.829 199.984C344.486 202.057 341.206 203.094 337.99 203.094C334.901 203.094 332.235 201.825 329.993 199.286C327.75 196.705 326.629 193.171 326.629 188.686C326.629 181.958 328.639 174.87 332.659 167.423C336.721 159.933 341.862 153.945 348.082 149.46C352.949 145.905 357.54 144.128 361.856 144.128C364.437 144.128 366.574 144.805 368.267 146.159C370.002 147.513 371.313 149.756 372.202 152.887L374.487 145.651L384.579 144.128ZM361.983 147.429C359.275 147.429 356.397 148.698 353.351 151.237C349.035 154.834 345.184 160.166 341.799 167.232C338.456 174.299 336.784 180.688 336.784 186.401C336.784 189.278 337.504 191.563 338.942 193.256C340.381 194.906 342.031 195.731 343.893 195.731C348.506 195.731 353.52 192.325 358.936 185.512C366.172 176.457 369.79 167.169 369.79 157.648C369.79 154.051 369.092 151.449 367.695 149.841C366.299 148.233 364.395 147.429 361.983 147.429ZM417.268 144.128L408.826 173.008C416.739 161.202 422.79 153.437 426.979 149.714C431.21 145.99 435.273 144.128 439.166 144.128C441.281 144.128 443.016 144.826 444.37 146.223C445.767 147.619 446.465 149.439 446.465 151.681C446.465 154.22 445.851 157.605 444.624 161.837L436.881 188.559C435.992 191.648 435.548 193.531 435.548 194.208C435.548 194.8 435.717 195.308 436.055 195.731C436.394 196.112 436.754 196.303 437.134 196.303C437.642 196.303 438.256 196.028 438.975 195.477C441.218 193.7 443.672 190.992 446.338 187.353L448.306 188.559C444.37 194.187 440.647 198.207 437.134 200.619C434.68 202.269 432.48 203.094 430.533 203.094C428.968 203.094 427.719 202.608 426.788 201.634C425.857 200.703 425.392 199.434 425.392 197.826C425.392 195.795 426.111 192.304 427.55 187.353L434.913 161.837C435.844 158.663 436.309 156.188 436.309 154.411C436.309 153.564 436.034 152.887 435.484 152.38C434.934 151.829 434.257 151.554 433.453 151.554C432.268 151.554 430.851 152.062 429.2 153.078C426.069 154.982 422.811 158.134 419.426 162.535C416.04 166.894 412.465 172.479 408.699 179.292C406.71 182.889 405.06 186.824 403.748 191.098L400.574 201.571H391.053L402.605 161.837C403.959 157.055 404.637 154.178 404.637 153.205C404.637 152.274 404.256 151.47 403.494 150.793C402.775 150.073 401.865 149.714 400.765 149.714C400.257 149.714 399.368 149.798 398.099 149.968L395.687 150.348L395.306 148.063L417.268 144.128ZM487.341 128.387L482.39 145.651H492.356L491.277 149.65H481.375L470.458 187.099C469.273 191.119 468.68 193.721 468.68 194.906C468.68 195.626 468.85 196.176 469.188 196.556C469.527 196.937 469.929 197.128 470.394 197.128C471.452 197.128 472.848 196.387 474.583 194.906C475.599 194.06 477.863 191.458 481.375 187.099L483.469 188.686C479.576 194.356 475.895 198.355 472.425 200.682C470.056 202.29 467.665 203.094 465.253 203.094C463.391 203.094 461.868 202.523 460.683 201.38C459.498 200.196 458.906 198.693 458.906 196.874C458.906 194.589 459.583 191.098 460.937 186.401L471.537 149.65H461.952L462.587 147.175C467.242 145.905 471.113 144.022 474.202 141.526C477.291 138.987 480.74 134.607 484.548 128.387H487.341ZM527.9 111.313L510.064 172.945C517.766 161.35 523.775 153.649 528.091 149.841C532.407 146.032 536.533 144.128 540.468 144.128C542.499 144.128 544.192 144.826 545.546 146.223C546.9 147.619 547.577 149.481 547.577 151.808C547.577 154.601 546.984 157.986 545.799 161.964L538.056 188.559C537.083 191.775 536.596 193.552 536.596 193.891C536.596 194.483 536.765 194.97 537.104 195.35C537.485 195.731 537.908 195.922 538.373 195.922C538.923 195.922 539.558 195.647 540.277 195.097C542.689 193.235 545.08 190.654 547.45 187.353L549.417 188.559C547.979 190.802 545.969 193.277 543.388 195.985C540.849 198.651 538.648 200.513 536.786 201.571C534.967 202.586 533.338 203.094 531.899 203.094C530.333 203.094 529.043 202.586 528.027 201.571C527.054 200.598 526.567 199.328 526.567 197.762C526.567 195.901 527.308 192.431 528.789 187.353L536.088 161.964C537.019 158.79 537.485 156.294 537.485 154.474C537.485 153.628 537.21 152.951 536.659 152.443C536.152 151.935 535.475 151.681 534.628 151.681C533.401 151.681 532.005 152.147 530.439 153.078C527.562 154.855 524.24 158.156 520.474 162.979C519.458 164.291 516.073 169.581 510.318 178.848C508.541 181.81 507.081 185.047 505.939 188.559L501.876 201.571H492.356L513.238 128.958L515.46 121.088C515.46 119.987 514.994 119.014 514.063 118.168C513.175 117.322 512.074 116.898 510.763 116.898C510.001 116.898 508.837 117.025 507.272 117.279L505.939 117.47V114.994L527.9 111.313ZM583.82 118.93C585.597 118.93 587.099 119.543 588.326 120.77C589.553 121.997 590.167 123.5 590.167 125.277C590.167 127.012 589.532 128.514 588.263 129.783C587.036 131.01 585.554 131.624 583.82 131.624C582.085 131.624 580.582 131.01 579.313 129.783C578.086 128.514 577.472 127.012 577.472 125.277C577.472 123.5 578.086 121.997 579.313 120.77C580.54 119.543 582.042 118.93 583.82 118.93ZM584.645 144.128L572.077 188.622C571.231 191.627 570.808 193.425 570.808 194.018C570.808 194.695 570.998 195.245 571.379 195.668C571.802 196.091 572.289 196.303 572.839 196.303C573.474 196.303 574.235 195.964 575.124 195.287C577.536 193.383 579.969 190.675 582.423 187.163L584.645 188.622C581.767 193.023 578.382 196.726 574.489 199.73C571.612 201.973 568.861 203.094 566.238 203.094C564.503 203.094 563.085 202.586 561.985 201.571C560.885 200.513 560.335 199.201 560.335 197.636C560.335 196.07 560.864 193.467 561.922 189.828L570.173 161.393C571.527 156.738 572.204 153.818 572.204 152.633C572.204 151.703 571.866 150.941 571.189 150.348C570.554 149.756 569.665 149.46 568.523 149.46C567.592 149.46 565.666 149.693 562.747 150.158V147.683L584.645 144.128ZM651.926 144.128L639.548 187.163L638.152 192.939C638.025 193.489 637.962 193.954 637.962 194.335C637.962 195.012 638.173 195.604 638.596 196.112C638.935 196.493 639.358 196.683 639.866 196.683C640.416 196.683 641.135 196.345 642.024 195.668C643.674 194.441 645.875 191.902 648.625 188.051L650.783 189.574C647.863 193.975 644.859 197.339 641.77 199.667C638.681 201.952 635.825 203.094 633.201 203.094C631.382 203.094 630.006 202.629 629.076 201.698C628.187 200.809 627.743 199.497 627.743 197.762C627.743 195.689 628.208 192.96 629.139 189.574L630.472 184.814C624.929 192.05 619.83 197.107 615.175 199.984C611.832 202.057 608.553 203.094 605.337 203.094C602.248 203.094 599.582 201.825 597.339 199.286C595.097 196.705 593.975 193.171 593.975 188.686C593.975 181.958 595.985 174.87 600.005 167.423C604.067 159.933 609.209 153.945 615.429 149.46C620.295 145.905 624.886 144.128 629.202 144.128C631.784 144.128 633.921 144.805 635.613 146.159C637.348 147.513 638.66 149.756 639.548 152.887L641.833 145.651L651.926 144.128ZM629.329 147.429C626.621 147.429 623.744 148.698 620.697 151.237C616.381 154.834 612.53 160.166 609.145 167.232C605.802 174.299 604.131 180.688 604.131 186.401C604.131 189.278 604.85 191.563 606.289 193.256C607.728 194.906 609.378 195.731 611.24 195.731C615.852 195.731 620.866 192.325 626.283 185.512C633.519 176.457 637.137 167.169 637.137 157.648C637.137 154.051 636.438 151.449 635.042 149.841C633.646 148.233 631.741 147.429 629.329 147.429ZM703.085 144.128L699.213 163.614H696.864C696.653 157.944 695.447 153.818 693.246 151.237C691.046 148.656 688.317 147.365 685.058 147.365C682.435 147.365 680.34 148.085 678.775 149.523C677.251 150.962 676.49 152.697 676.49 154.728C676.49 156.124 676.786 157.457 677.378 158.727C678.013 159.996 679.367 161.774 681.44 164.059C686.941 170.067 690.496 174.595 692.104 177.642C693.712 180.688 694.516 183.566 694.516 186.274C694.516 190.675 692.675 194.589 688.994 198.016C685.355 201.402 680.742 203.094 675.157 203.094C672.11 203.094 668.598 202.375 664.62 200.936C663.224 200.428 662.145 200.174 661.383 200.174C659.479 200.174 658.04 201.148 657.067 203.094H654.718L658.59 182.529H660.939C661.193 188.961 662.526 193.51 664.938 196.176C667.349 198.841 670.65 200.174 674.839 200.174C678.055 200.174 680.594 199.286 682.456 197.509C684.36 195.689 685.312 193.467 685.312 190.844C685.312 189.151 684.974 187.586 684.297 186.147C683.112 183.608 680.615 180.096 676.807 175.611C673.041 171.125 670.608 167.761 669.508 165.518C668.45 163.276 667.921 161.033 667.921 158.79C667.921 154.686 669.402 151.216 672.364 148.381C675.368 145.546 679.219 144.128 683.916 144.128C685.27 144.128 686.497 144.234 687.597 144.445C688.19 144.572 689.565 145.059 691.723 145.905C693.923 146.709 695.383 147.111 696.103 147.111C697.922 147.111 699.445 146.117 700.673 144.128H703.085ZM777.728 111.313L756.021 186.845C754.963 190.611 754.434 192.917 754.434 193.764C754.434 194.398 754.624 194.927 755.005 195.35C755.428 195.774 755.936 195.985 756.528 195.985C757.332 195.985 758.2 195.626 759.131 194.906C761.331 193.171 763.637 190.484 766.049 186.845L767.953 188.813C763.934 194.483 760.231 198.439 756.846 200.682C754.349 202.29 751.98 203.094 749.737 203.094C748.129 203.094 746.775 202.544 745.675 201.444C744.617 200.344 744.088 199.074 744.088 197.636C744.088 196.112 744.765 192.981 746.119 188.242L763.32 128.704C764.716 123.838 765.415 121.045 765.415 120.326C765.415 119.31 765.013 118.485 764.209 117.85C763.405 117.173 762.156 116.835 760.464 116.835C759.49 116.835 758.009 116.983 756.021 117.279V114.931L777.728 111.313ZM836.25 144.128L823.873 187.163L822.476 192.939C822.349 193.489 822.286 193.954 822.286 194.335C822.286 195.012 822.498 195.604 822.921 196.112C823.259 196.493 823.682 196.683 824.19 196.683C824.74 196.683 825.46 196.345 826.348 195.668C827.999 194.441 830.199 191.902 832.949 188.051L835.107 189.574C832.188 193.975 829.183 197.339 826.094 199.667C823.005 201.952 820.149 203.094 817.526 203.094C815.706 203.094 814.331 202.629 813.4 201.698C812.511 200.809 812.067 199.497 812.067 197.762C812.067 195.689 812.532 192.96 813.463 189.574L814.796 184.814C809.253 192.05 804.154 197.107 799.499 199.984C796.156 202.057 792.877 203.094 789.661 203.094C786.572 203.094 783.906 201.825 781.664 199.286C779.421 196.705 778.3 193.171 778.3 188.686C778.3 181.958 780.309 174.87 784.329 167.423C788.392 159.933 793.533 153.945 799.753 149.46C804.619 145.905 809.211 144.128 813.527 144.128C816.108 144.128 818.245 144.805 819.938 146.159C821.672 147.513 822.984 149.756 823.873 152.887L826.158 145.651L836.25 144.128ZM813.654 147.429C810.946 147.429 808.068 148.698 805.021 151.237C800.705 154.834 796.855 160.166 793.469 167.232C790.127 174.299 788.455 180.688 788.455 186.401C788.455 189.278 789.174 191.563 790.613 193.256C792.052 194.906 793.702 195.731 795.564 195.731C800.176 195.731 805.191 192.325 810.607 185.512C817.843 176.457 821.461 167.169 821.461 157.648C821.461 154.051 820.763 151.449 819.366 149.841C817.97 148.233 816.066 147.429 813.654 147.429ZM877.761 111.313L865.257 155.172C869.319 150.941 872.852 148.042 875.857 146.477C878.904 144.911 882.077 144.128 885.378 144.128C890.032 144.128 893.841 145.673 896.803 148.762C899.765 151.851 901.246 156.04 901.246 161.329C901.246 168.142 899.299 174.933 895.406 181.704C891.513 188.432 886.626 193.679 880.744 197.445C874.862 201.211 869.065 203.094 863.353 203.094C856.963 203.094 850.404 200.703 843.676 195.922L862.972 129.466C864.453 124.346 865.193 121.341 865.193 120.453C865.193 119.353 864.855 118.528 864.178 117.977C863.205 117.216 861.766 116.835 859.862 116.835C858.973 116.835 857.619 116.983 855.799 117.279V114.867L877.761 111.313ZM853.197 196.62C857.429 198.947 861.152 200.111 864.368 200.111C868.092 200.111 871.943 198.757 875.92 196.049C879.94 193.298 883.41 188.686 886.33 182.212C889.292 175.737 890.773 169.2 890.773 162.599C890.773 158.706 889.8 155.659 887.853 153.459C885.949 151.258 883.685 150.158 881.062 150.158C877.126 150.158 873.276 151.745 869.51 154.918C865.744 158.05 863.057 162.429 861.449 168.057L853.197 196.62ZM952.405 144.128L948.533 163.614H946.184C945.973 157.944 944.767 153.818 942.566 151.237C940.366 148.656 937.637 147.365 934.379 147.365C931.755 147.365 929.66 148.085 928.095 149.523C926.571 150.962 925.81 152.697 925.81 154.728C925.81 156.124 926.106 157.457 926.698 158.727C927.333 159.996 928.687 161.774 930.761 164.059C936.262 170.067 939.816 174.595 941.424 177.642C943.032 180.688 943.836 183.566 943.836 186.274C943.836 190.675 941.995 194.589 938.314 198.016C934.675 201.402 930.062 203.094 924.477 203.094C921.43 203.094 917.918 202.375 913.94 200.936C912.544 200.428 911.465 200.174 910.703 200.174C908.799 200.174 907.36 201.148 906.387 203.094H904.039L907.91 182.529H910.259C910.513 188.961 911.846 193.51 914.258 196.176C916.67 198.841 919.97 200.174 924.159 200.174C927.375 200.174 929.914 199.286 931.776 197.509C933.68 195.689 934.632 193.467 934.632 190.844C934.632 189.151 934.294 187.586 933.617 186.147C932.432 183.608 929.935 180.096 926.127 175.611C922.361 171.125 919.928 167.761 918.828 165.518C917.77 163.276 917.241 161.033 917.241 158.79C917.241 154.686 918.722 151.216 921.684 148.381C924.688 145.546 928.539 144.128 933.236 144.128C934.59 144.128 935.817 144.234 936.917 144.445C937.51 144.572 938.885 145.059 941.043 145.905C943.244 146.709 944.703 147.111 945.423 147.111C947.242 147.111 948.766 146.117 949.993 144.128H952.405Z" fill="white"/>
<path d="M178.137 107.172L224.484 153.76M178.137 107.172L132.845 153.76M178.137 107.172L204.345 81.4257C206.74 79.0729 205.074 75 201.717 75H153.869C150.488 75 148.833 79.1218 151.275 81.4596L178.137 107.172ZM224.484 153.76L179.191 198.726M224.484 153.76L251.574 126.212C253.927 123.819 257.998 125.485 257.998 128.841V177.907C257.998 181.238 253.98 182.916 251.611 180.575L224.484 153.76ZM179.191 198.726L205.806 226.661C208.08 229.048 206.388 232.998 203.09 232.998H153.654C150.303 232.998 148.634 228.937 151.017 226.581L179.191 198.726ZM179.191 198.726L156.209 177.055L132.845 153.76M132.845 153.76L106.351 179.25C103.968 181.543 100 179.854 100 176.548V129.359C100 125.997 104.083 124.333 106.432 126.737L132.845 153.76Z" stroke="#1FCFCF" stroke-width="3.75038"/>
</svg>
