<svg width="739" height="139" viewBox="0 0 739 139" fill="none" xmlns="http://www.w3.org/2000/svg">
<path d="M249.95 61.7515L239.366 98.5516L238.171 103.491C238.063 103.961 238.009 104.359 238.009 104.685C238.009 105.264 238.19 105.77 238.551 106.205C238.841 106.53 239.203 106.693 239.637 106.693C240.107 106.693 240.723 106.404 241.482 105.825C242.894 104.775 244.775 102.604 247.127 99.3115L248.973 100.614C246.476 104.377 243.907 107.254 241.265 109.244C238.624 111.198 236.181 112.175 233.938 112.175C232.382 112.175 231.206 111.777 230.41 110.981C229.65 110.221 229.27 109.099 229.27 107.616C229.27 105.843 229.668 103.509 230.464 100.614L231.604 96.5433C226.864 102.731 222.503 107.055 218.523 109.516C215.664 111.289 212.86 112.175 210.11 112.175C207.469 112.175 205.189 111.09 203.271 108.919C201.353 106.711 200.394 103.69 200.394 99.8542C200.394 94.1008 202.113 88.0398 205.551 81.6713C209.024 75.2666 213.421 70.1464 218.74 66.3108C222.901 63.2712 226.827 61.7515 230.518 61.7515C232.726 61.7515 234.553 62.3304 236 63.4883C237.484 64.6463 238.606 66.5641 239.366 69.2418L241.32 63.0541L249.95 61.7515ZM230.627 64.5739C228.311 64.5739 225.851 65.6594 223.245 67.8305C219.554 70.9063 216.261 75.4656 213.367 81.5085C210.508 87.5513 209.079 93.0153 209.079 97.9002C209.079 100.361 209.694 102.315 210.924 103.762C212.154 105.173 213.566 105.879 215.158 105.879C219.102 105.879 223.39 102.966 228.022 97.1404C234.209 89.3968 237.303 81.4542 237.303 73.3126C237.303 70.2368 236.706 68.0115 235.512 66.6364C234.318 65.2614 232.689 64.5739 230.627 64.5739ZM277.903 61.7515L270.684 86.4477C277.45 76.3521 282.625 69.7122 286.207 66.5279C289.826 63.3436 293.299 61.7515 296.628 61.7515C298.438 61.7515 299.921 62.3485 301.079 63.5426C302.273 64.7367 302.87 66.2927 302.87 68.2105C302.87 70.3816 302.346 73.2764 301.296 76.8949L294.674 99.7457C293.914 102.387 293.534 103.997 293.534 104.576C293.534 105.083 293.679 105.517 293.969 105.879C294.258 106.205 294.566 106.368 294.891 106.368C295.326 106.368 295.85 106.132 296.465 105.662C298.383 104.142 300.482 101.826 302.762 98.7144L304.444 99.7457C301.079 104.558 297.895 107.996 294.891 110.058C292.793 111.47 290.911 112.175 289.247 112.175C287.908 112.175 286.84 111.759 286.044 110.927C285.248 110.131 284.85 109.045 284.85 107.67C284.85 105.933 285.465 102.948 286.696 98.7144L292.992 76.8949C293.788 74.181 294.186 72.0642 294.186 70.5444C294.186 69.8207 293.951 69.2418 293.48 68.8075C293.01 68.3371 292.431 68.1019 291.743 68.1019C290.73 68.1019 289.518 68.5361 288.107 69.4046C285.429 71.0329 282.643 73.7287 279.748 77.4919C276.853 81.219 273.796 85.9954 270.575 91.8212C268.874 94.8969 267.463 98.2621 266.341 101.917L263.628 110.873H255.486L265.364 76.8949C266.522 72.806 267.101 70.3454 267.101 69.5131C267.101 68.7171 266.776 68.0296 266.124 67.4506C265.509 66.8355 264.731 66.5279 263.79 66.5279C263.356 66.5279 262.596 66.6003 261.511 66.745L259.448 67.0707L259.123 65.1167L277.903 61.7515ZM337.825 48.2907L333.591 63.0541H342.113L341.19 66.4736H332.723L323.387 98.4973C322.374 101.935 321.867 104.16 321.867 105.173C321.867 105.789 322.012 106.259 322.302 106.585C322.591 106.91 322.935 107.073 323.333 107.073C324.237 107.073 325.432 106.44 326.915 105.173C327.784 104.45 329.719 102.224 332.723 98.4973L334.514 99.8542C331.185 104.703 328.037 108.123 325.07 110.113C323.043 111.488 320.999 112.175 318.936 112.175C317.344 112.175 316.042 111.687 315.028 110.71C314.015 109.697 313.509 108.412 313.509 106.856C313.509 104.902 314.088 101.917 315.245 97.9002L324.31 66.4736H316.114L316.657 64.3568C320.637 63.2712 323.948 61.661 326.589 59.5261C329.231 57.355 332.18 53.6098 335.437 48.2907H337.825ZM372.508 33.69L357.256 86.3934C363.842 76.4787 368.98 69.8931 372.671 66.6364C376.362 63.3798 379.89 61.7515 383.255 61.7515C384.992 61.7515 386.439 62.3485 387.597 63.5426C388.755 64.7367 389.334 66.3289 389.334 68.319C389.334 70.7072 388.828 73.602 387.814 77.0034L381.193 99.7457C380.36 102.496 379.944 104.016 379.944 104.305C379.944 104.812 380.089 105.228 380.378 105.553C380.704 105.879 381.066 106.042 381.464 106.042C381.934 106.042 382.477 105.807 383.092 105.336C385.155 103.744 387.199 101.537 389.226 98.7144L390.908 99.7457C389.678 101.663 387.959 103.78 385.752 106.096C383.581 108.376 381.699 109.968 380.107 110.873C378.551 111.741 377.158 112.175 375.928 112.175C374.589 112.175 373.485 111.741 372.617 110.873C371.784 110.04 371.368 108.955 371.368 107.616C371.368 106.024 372.002 103.057 373.268 98.7144L379.51 77.0034C380.306 74.2896 380.704 72.1546 380.704 70.5987C380.704 69.875 380.469 69.296 379.998 68.8618C379.564 68.4276 378.985 68.2105 378.262 68.2105C377.212 68.2105 376.018 68.6085 374.679 69.4046C372.219 70.9244 369.378 73.7468 366.158 77.8719C365.289 78.9936 362.394 83.5167 357.473 91.4412C355.954 93.9742 354.705 96.7423 353.728 99.7457L350.254 110.873H342.113L359.97 48.7792L361.87 42.0488C361.87 41.1079 361.472 40.2757 360.676 39.552C359.916 38.8283 358.975 38.4664 357.853 38.4664C357.202 38.4664 356.207 38.575 354.868 38.7921L353.728 38.9549V36.8381L372.508 33.69ZM420.327 40.2033C421.846 40.2033 423.131 40.728 424.18 41.7774C425.23 42.8267 425.754 44.1113 425.754 45.6311C425.754 47.1146 425.212 48.3992 424.126 49.4848C423.077 50.5341 421.81 51.0588 420.327 51.0588C418.843 51.0588 417.558 50.5341 416.473 49.4848C415.424 48.3992 414.899 47.1146 414.899 45.6311C414.899 44.1113 415.424 42.8267 416.473 41.7774C417.522 40.728 418.807 40.2033 420.327 40.2033ZM421.032 61.7515L410.285 99.8C409.562 102.369 409.2 103.907 409.2 104.414C409.2 104.993 409.363 105.463 409.688 105.825C410.05 106.187 410.466 106.368 410.937 106.368C411.479 106.368 412.131 106.078 412.891 105.499C414.953 103.871 417.034 101.555 419.132 98.5516L421.032 99.8C418.572 103.563 415.677 106.729 412.348 109.299C409.887 111.216 407.535 112.175 405.292 112.175C403.808 112.175 402.596 111.741 401.655 110.873C400.714 109.968 400.244 108.846 400.244 107.507C400.244 106.169 400.696 103.943 401.601 100.831L408.657 76.5149C409.815 72.5346 410.394 70.0378 410.394 69.0246C410.394 68.2286 410.104 67.5772 409.525 67.0707C408.983 66.5641 408.223 66.3108 407.246 66.3108C406.45 66.3108 404.803 66.5098 402.306 66.9078V64.791L421.032 61.7515ZM478.566 61.7515L467.982 98.5516L466.788 103.491C466.68 103.961 466.625 104.359 466.625 104.685C466.625 105.264 466.806 105.77 467.168 106.205C467.458 106.53 467.819 106.693 468.254 106.693C468.724 106.693 469.339 106.404 470.099 105.825C471.51 104.775 473.392 102.604 475.744 99.3115L477.589 100.614C475.093 104.377 472.523 107.254 469.882 109.244C467.24 111.198 464.798 112.175 462.554 112.175C460.999 112.175 459.823 111.777 459.026 110.981C458.267 110.221 457.887 109.099 457.887 107.616C457.887 105.843 458.285 103.509 459.081 100.614L460.221 96.5433C455.48 102.731 451.12 107.055 447.14 109.516C444.281 111.289 441.477 112.175 438.727 112.175C436.085 112.175 433.806 111.09 431.888 108.919C429.97 106.711 429.011 103.69 429.011 99.8542C429.011 94.1008 430.73 88.0398 434.167 81.6713C437.641 75.2666 442.038 70.1464 447.357 66.3108C451.518 63.2712 455.444 61.7515 459.135 61.7515C461.342 61.7515 463.17 62.3304 464.617 63.4883C466.101 64.6463 467.222 66.5641 467.982 69.2418L469.936 63.0541L478.566 61.7515ZM459.244 64.5739C456.928 64.5739 454.467 65.6594 451.862 67.8305C448.171 70.9063 444.878 75.4656 441.983 81.5085C439.125 87.5513 437.695 93.0153 437.695 97.9002C437.695 100.361 438.311 102.315 439.541 103.762C440.771 105.173 442.182 105.879 443.774 105.879C447.719 105.879 452.007 102.966 456.638 97.1404C462.826 89.3968 465.92 81.4542 465.92 73.3126C465.92 70.2368 465.323 68.0115 464.129 66.6364C462.934 65.2614 461.306 64.5739 459.244 64.5739ZM522.314 61.7515L519.003 78.4146H516.995C516.814 73.5659 515.783 70.0378 513.901 67.8305C512.019 65.6233 509.685 64.5196 506.899 64.5196C504.656 64.5196 502.865 65.1348 501.526 66.365C500.223 67.5953 499.572 69.0789 499.572 70.8158C499.572 72.0099 499.825 73.1497 500.332 74.2353C500.874 75.3208 502.032 76.8406 503.805 78.7946C508.509 83.9329 511.549 87.8046 512.924 90.41C514.299 93.0153 514.986 95.4759 514.986 97.7917C514.986 101.555 513.412 104.902 510.264 107.833C507.152 110.728 503.208 112.175 498.432 112.175C495.827 112.175 492.823 111.56 489.422 110.33C488.228 109.896 487.305 109.678 486.654 109.678C485.025 109.678 483.795 110.511 482.963 112.175H480.955L484.265 94.5893H486.274C486.491 100.089 487.631 103.979 489.693 106.259C491.756 108.539 494.578 109.678 498.16 109.678C500.911 109.678 503.082 108.919 504.674 107.399C506.302 105.843 507.116 103.943 507.116 101.7C507.116 100.252 506.827 98.9134 506.248 97.6831C505.235 95.512 503.1 92.5087 499.843 88.6731C496.623 84.8375 494.542 81.9608 493.601 80.043C492.697 78.1252 492.244 76.2074 492.244 74.2896C492.244 70.7796 493.511 67.8124 496.044 65.3881C498.613 62.9637 501.906 61.7515 505.922 61.7515C507.08 61.7515 508.129 61.8419 509.07 62.0229C509.577 62.1314 510.753 62.5475 512.598 63.2712C514.48 63.9587 515.728 64.3025 516.343 64.3025C517.899 64.3025 519.202 63.4522 520.251 61.7515H522.314ZM586.144 33.69L567.581 98.2802C566.677 101.501 566.224 103.473 566.224 104.196C566.224 104.739 566.387 105.192 566.713 105.553C567.075 105.915 567.509 106.096 568.016 106.096C568.703 106.096 569.445 105.789 570.241 105.173C572.123 103.69 574.095 101.392 576.157 98.2802L577.785 99.9628C574.348 104.812 571.182 108.195 568.287 110.113C566.152 111.488 564.126 112.175 562.208 112.175C560.833 112.175 559.675 111.705 558.734 110.764C557.829 109.823 557.377 108.738 557.377 107.507C557.377 106.205 557.956 103.527 559.114 99.4743L573.823 48.562C575.017 44.4008 575.614 42.0126 575.614 41.3974C575.614 40.529 575.271 39.8234 574.583 39.2806C573.896 38.7016 572.828 38.4122 571.381 38.4122C570.548 38.4122 569.282 38.5388 567.581 38.7921V36.7838L586.144 33.69ZM636.188 61.7515L625.604 98.5516L624.41 103.491C624.301 103.961 624.247 104.359 624.247 104.685C624.247 105.264 624.428 105.77 624.79 106.205C625.079 106.53 625.441 106.693 625.875 106.693C626.346 106.693 626.961 106.404 627.721 105.825C629.132 104.775 631.014 102.604 633.366 99.3115L635.211 100.614C632.714 104.377 630.145 107.254 627.504 109.244C624.862 111.198 622.42 112.175 620.176 112.175C618.62 112.175 617.444 111.777 616.648 110.981C615.888 110.221 615.508 109.099 615.508 107.616C615.508 105.843 615.906 103.509 616.702 100.614L617.842 96.5433C613.102 102.731 608.742 107.055 604.761 109.516C601.903 111.289 599.098 112.175 596.348 112.175C593.707 112.175 591.427 111.09 589.509 108.919C587.592 106.711 586.633 103.69 586.633 99.8542C586.633 94.1008 588.352 88.0398 591.789 81.6713C595.263 75.2666 599.659 70.1464 604.979 66.3108C609.14 63.2712 613.066 61.7515 616.757 61.7515C618.964 61.7515 620.791 62.3304 622.239 63.4883C623.722 64.6463 624.844 66.5641 625.604 69.2418L627.558 63.0541L636.188 61.7515ZM616.865 64.5739C614.549 64.5739 612.089 65.6594 609.484 67.8305C605.793 70.9063 602.5 75.4656 599.605 81.5085C596.746 87.5513 595.317 93.0153 595.317 97.9002C595.317 100.361 595.932 102.315 597.163 103.762C598.393 105.173 599.804 105.879 601.396 105.879C605.34 105.879 609.628 102.966 614.26 97.1404C620.448 89.3968 623.541 81.4542 623.541 73.3126C623.541 70.2368 622.944 68.0115 621.75 66.6364C620.556 65.2614 618.928 64.5739 616.865 64.5739ZM671.685 33.69L660.993 71.1957C664.467 67.5772 667.488 65.0986 670.057 63.7597C672.662 62.4209 675.376 61.7515 678.199 61.7515C682.179 61.7515 685.436 63.0722 687.969 65.7137C690.502 68.3552 691.768 71.9375 691.768 76.4607C691.768 82.2864 690.104 88.0941 686.775 93.8837C683.446 99.6371 679.266 104.124 674.237 107.345C669.207 110.565 664.249 112.175 659.365 112.175C653.901 112.175 648.292 110.131 642.538 106.042L659.039 49.2134C660.305 44.835 660.939 42.2659 660.939 41.506C660.939 40.5652 660.649 39.8596 660.07 39.3892C659.238 38.7378 658.008 38.4122 656.379 38.4122C655.619 38.4122 654.461 38.5388 652.905 38.7921V36.7296L671.685 33.69ZM650.68 106.639C654.299 108.629 657.483 109.624 660.233 109.624C663.417 109.624 666.71 108.466 670.111 106.15C673.549 103.798 676.516 99.8542 679.013 94.3179C681.546 88.7816 682.812 83.1911 682.812 77.5462C682.812 74.2172 681.98 71.6119 680.316 69.7303C678.687 67.8486 676.751 66.9078 674.508 66.9078C671.143 66.9078 667.85 68.2648 664.629 70.9786C661.409 73.6563 659.111 77.4015 657.736 82.2141L650.68 106.639ZM735.516 61.7515L732.205 78.4146H730.197C730.016 73.5659 728.984 70.0378 727.103 67.8305C725.221 65.6233 722.887 64.5196 720.101 64.5196C717.858 64.5196 716.066 65.1348 714.728 66.365C713.425 67.5953 712.774 69.0789 712.774 70.8158C712.774 72.0099 713.027 73.1497 713.533 74.2353C714.076 75.3208 715.234 76.8406 717.007 78.7946C721.711 83.9329 724.751 87.8046 726.126 90.41C727.501 93.0153 728.188 95.4759 728.188 97.7917C728.188 101.555 726.614 104.902 723.466 107.833C720.354 110.728 716.41 112.175 711.634 112.175C709.028 112.175 706.025 111.56 702.624 110.33C701.43 109.896 700.507 109.678 699.855 109.678C698.227 109.678 696.997 110.511 696.165 112.175H694.156L697.467 94.5893H699.476C699.693 100.089 700.832 103.979 702.895 106.259C704.958 108.539 707.78 109.678 711.362 109.678C714.112 109.678 716.283 108.919 717.876 107.399C719.504 105.843 720.318 103.943 720.318 101.7C720.318 100.252 720.029 98.9134 719.45 97.6831C718.436 95.512 716.302 92.5087 713.045 88.6731C709.824 84.8375 707.744 81.9608 706.803 80.043C705.898 78.1252 705.446 76.2074 705.446 74.2896C705.446 70.7796 706.713 67.8124 709.245 65.3881C711.815 62.9637 715.107 61.7515 719.124 61.7515C720.282 61.7515 721.331 61.8419 722.272 62.0229C722.779 62.1314 723.955 62.5475 725.8 63.2712C727.682 63.9587 728.93 64.3025 729.545 64.3025C731.101 64.3025 732.404 63.4522 733.453 61.7515H735.516Z" fill="white"/>
<path d="M68.8178 29.5117L108.45 69.3506M68.8178 29.5117L30.0864 69.3506M68.8178 29.5117L91.229 7.49486C93.277 5.48289 91.8524 2 88.9815 2H48.0647C45.1736 2 43.7585 5.52468 45.8471 7.52384L68.8178 29.5117ZM108.45 69.3506L69.7185 107.802M108.45 69.3506L131.616 45.7929C133.628 43.7464 137.109 45.1713 137.109 48.0415V89.9994C137.109 92.8476 133.674 94.2826 131.648 92.2803L108.45 69.3506ZM69.7185 107.802L92.478 131.69C94.4231 133.732 92.9759 137.109 90.156 137.109H47.8814C45.0154 137.109 43.5886 133.637 45.6266 131.622L69.7185 107.802ZM69.7185 107.802L50.0662 89.2701L30.0864 69.3506M30.0864 69.3506L7.4306 91.1478C5.39307 93.1081 2 91.6641 2 88.8367V48.4839C2 45.609 5.49111 44.1863 7.5006 46.2423L30.0864 69.3506Z" stroke="white" stroke-width="3.20707"/>
</svg>
